<svg width="32" height="32" viewBox="0 0 32 32" fill="none" xmlns="http://www.w3.org/2000/svg">
  <!-- Background circle with gradient -->
  <defs>
    <linearGradient id="bgGradient" x1="0%" y1="0%" x2="100%" y2="100%">
      <stop offset="0%" style="stop-color:#667eea;stop-opacity:1" />
      <stop offset="100%" style="stop-color:#764ba2;stop-opacity:1" />
    </linearGradient>
    <linearGradient id="shieldGradient" x1="0%" y1="0%" x2="100%" y2="100%">
      <stop offset="0%" style="stop-color:#ffffff;stop-opacity:1" />
      <stop offset="100%" style="stop-color:#f8fafc;stop-opacity:1" />
    </linearGradient>
  </defs>
  
  <!-- Background circle -->
  <circle cx="16" cy="16" r="16" fill="url(#bgGradient)"/>
  
  <!-- Shield shape -->
  <path d="M16 6L22 9V15C22 20 19 24 16 26C13 24 10 20 10 15V9L16 6Z" fill="url(#shieldGradient)" stroke="#ffffff" stroke-width="1"/>
  
  <!-- Bank card lines -->
  <rect x="10" y="12" width="12" height="8" rx="1" fill="#667eea" opacity="0.8"/>
  <rect x="11" y="13" width="8" height="1" fill="#ffffff"/>
  <rect x="11" y="15" width="6" height="1" fill="#ffffff" opacity="0.7"/>
  <rect x="11" y="17" width="4" height="1" fill="#ffffff" opacity="0.5"/>
  
  <!-- Small dots representing IBAN -->
  <circle cx="14" cy="20" r="0.5" fill="#ffffff"/>
  <circle cx="15" cy="20" r="0.5" fill="#ffffff"/>
  <circle cx="16" cy="20" r="0.5" fill="#ffffff"/>
  <circle cx="17" cy="20" r="0.5" fill="#ffffff"/>
  <circle cx="18" cy="20" r="0.5" fill="#ffffff"/>
</svg>
